<svg xmlns="http://www.w3.org/2000/svg" width="764" height="764" viewBox="0 0 764 764" version="1.1"><path d="M 406.425 88 C 406.425 99.825, 406.569 104.663, 406.746 98.750 C 406.923 92.838, 406.923 83.163, 406.746 77.250 C 406.569 71.338, 406.425 76.175, 406.425 88 M 424.423 88.500 C 424.424 100.050, 424.570 104.638, 424.747 98.696 C 424.924 92.753, 424.923 83.303, 424.745 77.696 C 424.567 72.088, 424.422 76.950, 424.423 88.500 M 379.500 159.584 C 363.206 163.193, 350.470 172.556, 339.500 188.991 C 336.750 193.110, 329.982 203.010, 324.460 210.991 C 318.938 218.971, 310.418 231.350, 305.526 238.500 C 300.633 245.650, 292.551 257.455, 287.565 264.733 C 282.579 272.011, 275.350 282.578, 271.500 288.216 C 267.650 293.853, 259.984 304.998, 254.464 312.983 C 248.945 320.967, 240.413 333.350, 235.505 340.500 C 230.597 347.650, 222.874 358.900, 218.344 365.500 C 192.187 403.607, 190.274 406.672, 187.384 415.108 C 183.523 426.378, 183.465 440.655, 187.235 451.697 C 193.598 470.336, 207.881 484.754, 225.458 490.285 L 232.500 492.500 392 492.500 C 545.246 492.500, 551.716 492.427, 557 490.628 C 567.010 487.220, 574.323 482.698, 581.500 475.478 C 599.064 457.807, 603.874 432.101, 593.862 409.407 C 591.630 404.349, 589.010 400.397, 559.573 357.687 C 552.575 347.534, 539.616 328.601, 526.588 309.500 C 522.462 303.450, 517.349 296.025, 515.225 293 C 513.102 289.975, 507.526 281.875, 502.834 275 C 498.143 268.125, 490.429 256.875, 485.694 250 C 480.958 243.125, 474.176 233.225, 470.623 228 C 443.173 187.634, 439.316 182.259, 433.072 175.672 C 420.035 161.920, 398.352 155.408, 379.500 159.584 M 378 163.583 C 364.057 167.261, 352.687 175.858, 343.062 190 C 333.028 204.742, 320.343 223.276, 311.921 235.500 C 306.994 242.650, 299.116 254.125, 294.412 261 C 289.709 267.875, 281.828 279.350, 276.899 286.500 C 271.969 293.650, 264.103 305.125, 259.418 312 C 241.893 337.717, 211.600 381.683, 203.264 393.500 C 192.240 409.127, 188 420.238, 188 433.500 C 188 458.588, 204.119 480.127, 228.530 487.658 C 234.222 489.414, 241.821 489.500, 391.500 489.500 L 548.500 489.500 555.500 487.292 C 562.991 484.929, 572.696 479.555, 577.366 475.183 C 595.040 458.638, 600.394 431.387, 590.173 410 C 588.713 406.947, 568.485 376.687, 550.730 351 C 547.499 346.325, 541.488 337.550, 537.371 331.500 C 533.255 325.450, 525.382 313.975, 519.876 306 C 514.370 298.025, 506.042 285.875, 501.369 279 C 496.697 272.125, 488.834 260.650, 483.897 253.500 C 478.959 246.350, 471.698 235.775, 467.760 230 C 463.821 224.225, 456.527 213.646, 451.550 206.491 C 446.572 199.336, 440.700 190.844, 438.500 187.618 C 430.141 175.364, 417.875 166.598, 404.760 163.506 C 396.910 161.655, 385.179 161.689, 378 163.583 M 333.475 409.250 C 328.855 415.386, 326.595 418.590, 318.593 430.343 C 315.344 435.115, 312.563 438.896, 312.412 438.745 C 312.261 438.594, 312.736 434.427, 313.467 429.485 C 314.198 424.543, 314.955 418.025, 315.148 415 L 315.500 409.500 311.784 409.192 C 308.588 408.926, 308 409.206, 307.589 411.192 C 306.472 416.575, 305.040 430.337, 304.423 441.609 C 303.770 453.526, 303.797 453.744, 306.102 455.359 C 307.391 456.262, 308.973 457, 309.619 457 C 310.265 457, 312.961 453.522, 315.610 449.272 L 320.427 441.543 321.110 444.882 C 322.120 449.823, 324.319 451.500, 329.786 451.500 C 337.547 451.500, 345.552 443.757, 346.709 435.133 C 347.014 432.859, 347.906 430.866, 348.767 430.536 C 350.938 429.703, 351.149 430.275, 349.942 433.736 C 349.355 435.420, 349.016 438.747, 349.188 441.130 C 349.455 444.834, 349.901 445.603, 352.261 446.428 C 354.744 447.297, 355.462 446.963, 359.375 443.122 C 363.362 439.210, 363.773 439.025, 364.270 440.923 C 364.568 442.062, 365.866 443.392, 367.156 443.877 C 369.898 444.909, 372.552 443.751, 379.367 438.550 C 382.420 436.219, 384 435.503, 384 436.450 C 384 438.328, 387.866 441, 390.582 441 C 391.757 441, 394.694 439.433, 397.109 437.518 C 401.333 434.169, 401.557 434.108, 403 435.912 C 406.436 440.208, 408.454 439.576, 416.463 431.696 C 420.608 427.618, 424 424.612, 424 425.018 C 424 425.423, 423.325 426.315, 422.500 427 C 419.961 429.108, 420.606 433.863, 423.618 435.235 C 425.944 436.295, 426.472 436.150, 428.368 433.932 C 436.611 424.285, 438.121 422.727, 437.515 424.500 C 437.138 425.600, 436.591 427.919, 436.300 429.653 C 435.220 436.074, 442.944 435.947, 449.053 429.444 C 451.906 426.406, 452.407 426.402, 453.775 429.406 C 456.308 434.964, 465.101 433.073, 473.242 425.220 C 481.547 417.208, 481.542 408.908, 473.230 406.028 C 469.314 404.671, 468.704 404.705, 465.440 406.463 C 463.492 407.512, 460.458 410.129, 458.699 412.279 C 453.669 418.426, 446.864 425.197, 446.291 424.625 C 446.005 424.338, 447.411 421.169, 449.416 417.583 L 453.063 411.063 451.031 409.031 C 449.914 407.914, 448.502 407, 447.893 407 C 447.285 407, 443.404 410.262, 439.270 414.250 C 431.848 421.409, 431.780 421.447, 433.877 417.290 C 436.548 411.992, 436.546 410.362, 433.863 408.926 C 431.928 407.891, 430.868 408.646, 422.686 416.882 C 417.715 421.886, 413.471 425.804, 413.254 425.587 C 413.038 425.371, 413.792 423.368, 414.930 421.137 C 417.797 415.517, 417.565 414.486, 413.134 413.158 C 406.175 411.073, 400.835 411.674, 395.619 415.129 C 391.479 417.871, 384 426.117, 384 427.938 C 384 428.688, 374.605 436, 373.641 436 C 372.111 436, 373.227 432.033, 375.978 427.696 C 378.407 423.866, 379.491 423, 381.856 423 C 385.359 423, 387.399 420.834, 386.516 418.050 C 385.609 415.193, 381.977 414.565, 377.406 416.475 C 372.357 418.585, 369.637 421.220, 366.100 427.430 C 364.513 430.219, 361.762 433.850, 359.988 435.500 C 356.786 438.479, 356.768 438.482, 357.501 436 C 358.669 432.044, 362.953 423.095, 367.213 415.714 C 371.858 407.668, 371.939 404.500, 367.500 404.500 C 364.805 404.500, 363.985 405.356, 359.432 412.928 C 355.392 419.646, 353.434 421.875, 349.781 423.915 C 345.582 426.259, 344.898 426.365, 341.627 425.182 C 339.097 424.267, 337.051 424.168, 334.610 424.842 L 331.165 425.793 337.267 416.929 C 343.254 408.231, 343.334 408.026, 341.529 406.032 C 340.518 404.915, 339.181 404, 338.558 404 C 337.936 404, 335.648 406.363, 333.475 409.250 M 468.500 413.165 C 463.968 415.667, 458.562 423.895, 460.305 425.638 C 461.530 426.863, 465.170 424.627, 468.362 420.688 C 474.014 413.714, 474.080 410.084, 468.500 413.165 M 399.428 421.917 C 395.758 424.615, 390.207 432.541, 391.254 433.587 C 391.859 434.192, 406 421.072, 406 419.906 C 406 418.202, 403.396 418.999, 399.428 421.917 M 177.300 433 C 177.300 436.025, 177.487 437.262, 177.716 435.750 C 177.945 434.238, 177.945 431.762, 177.716 430.250 C 177.487 428.738, 177.300 429.975, 177.300 433 M 332.143 434.643 C 329.433 437.930, 327.347 443.681, 328.461 444.794 C 329.550 445.884, 334.662 442.722, 336.750 439.668 C 339.500 435.644, 339.531 434.900, 337.038 432.765 C 335.166 431.162, 334.941 431.248, 332.143 434.643 M 348.681 452.734 C 348.429 453.155, 348.197 456.762, 348.166 460.750 C 348.120 466.657, 348.397 468, 349.660 468 C 350.848 468, 351.127 467.125, 350.852 464.250 L 350.495 460.500 355.500 460.500 L 360.505 460.500 360.148 464.250 C 359.870 467.161, 360.146 468, 361.380 468 C 362.716 468, 362.932 466.765, 362.735 460.250 C 362.501 452.525, 360.789 449.502, 360.187 455.750 C 359.885 458.881, 359.711 459, 355.437 459 C 351.193 459, 351 458.872, 351 456.059 C 351 453.197, 349.601 451.192, 348.681 452.734 M 366.639 452.694 C 366.288 453.046, 366 454.798, 366 456.587 C 366 459.390, 366.416 459.933, 369 460.500 C 371.620 461.075, 372 461.592, 372 464.579 C 372 466.953, 372.459 468, 373.500 468 C 374.541 468, 375 466.953, 375 464.579 C 375 461.578, 375.375 461.077, 378.055 460.488 C 380.822 459.880, 381.081 459.494, 380.805 456.388 C 380.412 451.967, 378.594 451.524, 378.187 455.750 C 377.885 458.881, 377.711 459, 373.437 459 C 369.193 459, 369 458.872, 369 456.059 C 369 453.124, 367.850 451.484, 366.639 452.694 M 384.750 452.689 C 382.271 453.337, 382.405 458.611, 384.934 459.965 C 385.998 460.534, 388.923 461, 391.434 461 C 395.749 461, 396 461.151, 395.997 463.750 C 395.994 466.375, 395.771 466.500, 391.092 466.505 C 386.506 466.510, 386.201 466.352, 386.345 464.044 C 386.447 462.420, 385.903 461.455, 384.750 461.216 C 383.354 460.927, 383 461.545, 383 464.277 L 383 467.701 389.009 467.881 C 392.313 467.980, 395.913 467.582, 397.009 466.995 C 399.172 465.838, 399.810 461, 397.800 461 C 396.867 461, 396.867 460.733, 397.800 459.800 C 399.637 457.963, 399.228 454.192, 397.066 453.035 C 395.147 452.008, 388.112 451.811, 384.750 452.689 M 401.199 455.832 C 401.584 460.321, 404 461.401, 404 457.083 C 404 454.096, 404.140 454, 408.500 454 C 412.633 454, 413 454.204, 413 456.500 C 413 458.744, 412.596 459, 409.059 459 C 406.891 459, 404.840 459.450, 404.500 460 C 404.160 460.550, 404.527 461, 405.315 461 C 406.104 461, 408.468 462.575, 410.570 464.500 C 414.182 467.809, 417 468.987, 417 467.188 C 417 466.741, 415.552 465.306, 413.783 463.998 L 410.566 461.619 413.801 460.300 C 416.542 459.181, 416.962 458.574, 416.553 456.321 C 415.880 452.609, 414.413 451.954, 407.199 452.149 L 400.898 452.318 401.199 455.832 M 419.538 453.187 C 418.614 455.897, 419.514 467.340, 420.682 467.728 C 421.523 468.008, 421.855 465.941, 421.834 460.559 C 421.807 453.655, 420.648 449.933, 419.538 453.187 M 426.367 452.765 C 425.705 453.194, 425.208 456.515, 425.172 460.750 L 425.109 468 430.305 467.986 C 439.556 467.962, 439.855 467.723, 439.812 460.378 C 439.782 455.207, 439.419 453.759, 437.953 452.975 C 435.827 451.837, 428.016 451.696, 426.367 452.765 M 427.639 457 C 427.715 458.925, 427.827 461.853, 427.889 463.507 C 427.997 466.434, 428.118 466.505, 432.400 466.164 C 436.391 465.847, 436.840 465.544, 437.227 462.907 C 437.462 461.308, 437.461 458.690, 437.226 457.090 C 436.834 454.416, 436.421 454.152, 432.150 453.840 L 427.500 453.500 427.639 457 M 386.400 456.500 C 386.400 458.819, 386.747 459, 391.200 459 C 395.653 459, 396 458.819, 396 456.500 C 396 454.181, 395.653 454, 391.200 454 C 386.747 454, 386.400 454.181, 386.400 456.500 M 401.187 464.173 C 401.639 468.757, 404 469.102, 404 464.583 C 404 462, 403.564 461, 402.437 461 C 401.281 461, 400.955 461.828, 401.187 464.173 M 603.441 539.500 C 603.442 555.450, 603.580 561.835, 603.748 553.689 C 603.916 545.543, 603.916 532.493, 603.747 524.689 C 603.579 516.885, 603.441 523.550, 603.441 539.500 M 11.442 542 C 11.442 558.225, 11.580 564.862, 11.748 556.750 C 11.916 548.638, 11.916 535.362, 11.748 527.250 C 11.580 519.138, 11.442 525.775, 11.442 542 M 702.917 531.782 C 696.639 537.392, 698.236 548.529, 705.769 551.677 C 715.860 555.893, 725.441 546.925, 721.996 536.488 C 719.535 529.030, 708.927 526.413, 702.917 531.782 M 49.580 536.912 C 47.114 539.637, 47.884 544.093, 51.135 545.909 C 53.495 547.227, 54.042 547.202, 56.385 545.667 C 58.367 544.369, 59 543.120, 59 540.512 C 59 535.228, 53.133 532.985, 49.580 536.912 M 706.655 536.829 C 704.184 539.559, 704.559 543.665, 707.451 545.560 C 710.405 547.495, 713.470 546.739, 715.553 543.559 C 719.252 537.914, 711.191 531.817, 706.655 536.829 M 376.442 571.749 C 662.813 571.951, 736.564 572.258, 737.268 573.251 C 737.922 574.175, 738.046 574.109, 737.743 573 C 737.380 571.670, 696.437 571.500, 376.917 571.498 L 16.500 571.496 376.442 571.749 M 12.784 575.738 C 15.689 575.941, 20.189 575.939, 22.784 575.734 C 25.378 575.528, 23 575.363, 17.500 575.365 C 12 575.368, 9.878 575.536, 12.784 575.738 M 614.444 746.500 L 614.500 755.500 617.500 755.645 C 620.277 755.779, 620.298 755.755, 617.787 755.332 C 615.112 754.881, 615.069 754.752, 614.730 746.187 L 614.388 737.500 614.444 746.500 M 663.469 756.500 C 663.211 757.325, 662.780 758.698, 662.511 759.552 C 662.240 760.415, 662.462 760.833, 663.011 760.493 C 663.555 760.157, 664 759.038, 664 758.007 C 664 756.730, 664.876 756, 666.750 755.716 L 669.500 755.300 666.719 755.150 C 665.021 755.058, 663.755 755.584, 663.469 756.500 M 114.250 760.745 C 119.062 760.928, 126.937 760.928, 131.750 760.745 C 136.563 760.561, 132.625 760.411, 123 760.411 C 113.375 760.411, 109.438 760.561, 114.250 760.745 M 629.250 760.746 C 634.612 760.925, 643.388 760.925, 648.750 760.746 C 654.112 760.566, 649.725 760.419, 639 760.419 C 628.275 760.419, 623.888 760.566, 629.250 760.746" stroke="none" fill="#e3e3e3" fill-rule="evenodd"/><path d="M 266.667 63.667 C 266.300 64.033, 266 74.470, 266 86.859 L 266 109.385 256.314 124.443 C 250.987 132.724, 243.269 144.675, 239.162 151 C 235.056 157.325, 224.049 174.425, 214.702 189 C 205.355 203.575, 195.387 219.100, 192.551 223.500 C 189.714 227.900, 181.796 240.275, 174.954 251 C 168.112 261.725, 160.261 273.977, 157.507 278.226 C 154.753 282.475, 149.829 290.125, 146.564 295.226 C 143.299 300.327, 137.862 308.775, 134.482 314 C 131.102 319.225, 126.317 326.650, 123.849 330.500 C 121.381 334.350, 116.766 341.550, 113.592 346.500 C 110.419 351.450, 100.190 367.425, 90.863 382 C 71.537 412.197, 68.868 416.349, 51.969 442.500 C 38.804 462.874, 34.709 469.247, 25.431 483.809 C 22.169 488.928, 16.927 497.028, 13.782 501.809 L 8.064 510.500 8.032 542.750 L 8 575 17.381 575 L 26.761 575 27.372 585.250 C 28.156 598.402, 29.724 627.894, 31.027 654 C 33.764 708.859, 33.867 710.030, 36.445 715.661 C 39.715 722.803, 46.911 730.264, 53.286 733.123 C 57.960 735.218, 60.417 735.514, 77 735.980 L 95.500 736.500 95.153 745.674 L 94.805 754.848 97.653 755.174 C 99.837 755.424, 100.568 756.082, 100.792 758 L 101.083 760.500 120.792 760.250 C 131.631 760.112, 141.256 760, 142.180 760 C 143.162 760, 143.994 759.064, 144.180 757.750 C 144.409 756.139, 145.281 755.410, 147.250 755.184 L 150 754.867 150 745.431 L 150 735.996 382.250 736.248 L 614.500 736.500 614.788 745.750 C 615.070 754.835, 615.119 755, 617.538 755 C 619.497 755, 620 755.510, 620 757.500 L 620 760 639 760.111 C 649.450 760.172, 658.995 760.272, 660.211 760.333 C 661.787 760.413, 662.589 759.734, 663.001 757.972 C 663.412 756.213, 664.360 755.409, 666.290 755.184 L 669 754.867 669 745.434 L 669 736 685.962 736 C 700.675 736, 703.660 735.725, 708.465 733.927 C 719.204 729.909, 727.025 721.348, 729.865 710.500 C 730.441 708.300, 731.615 692.100, 732.474 674.500 C 733.333 656.900, 734.692 629.675, 735.495 614 C 736.298 598.325, 736.965 582.463, 736.977 578.751 L 737 572.003 374.250 571.751 L 11.500 571.500 11.219 543.500 C 11.065 528.100, 11.159 514.600, 11.427 513.500 C 11.696 512.400, 16.322 504.637, 21.708 496.249 C 27.093 487.861, 37.783 471.211, 45.463 459.249 C 53.142 447.287, 65.088 428.725, 72.010 418 C 78.931 407.275, 86.738 395.125, 89.357 391 C 91.977 386.875, 98.931 376.038, 104.810 366.918 C 110.690 357.798, 118.425 345.747, 122 340.138 C 130.291 327.130, 148.378 299.073, 167.214 270 C 171.312 263.675, 177.498 254, 180.961 248.500 C 184.424 243, 189.292 235.350, 191.778 231.500 C 196.468 224.238, 198.380 221.267, 209.153 204.500 C 235.831 162.979, 246.706 146.088, 254.721 133.724 C 259.793 125.901, 265.306 117.195, 266.971 114.378 L 270 109.257 270 88.128 L 270 67 338.500 67 L 407 67 407 88.340 L 407 109.680 414.067 126.090 C 417.954 135.115, 421.554 143.400, 422.067 144.500 C 422.580 145.600, 424.021 149.048, 425.271 152.163 C 427.146 156.837, 428.604 158.607, 433.630 162.306 C 440.173 167.123, 445.881 173.621, 452.931 184.275 C 455.368 187.958, 457.509 190.824, 457.690 190.644 C 457.870 190.463, 456.259 186.532, 454.110 181.908 C 450.678 174.523, 443.757 159.299, 425.860 119.763 L 421 109.027 421 87.940 C 421 68.396, 421.128 66.878, 422.750 67.189 C 424.333 67.493, 424.548 69.574, 425 89.012 L 425.500 110.500 434.387 129.500 C 439.274 139.950, 445.687 153.619, 448.637 159.875 C 451.587 166.131, 454 171.380, 454 171.539 C 454 171.698, 456.191 176.479, 458.869 182.164 C 461.546 187.849, 466.127 197.675, 469.047 204 C 471.968 210.325, 477.459 220, 481.250 225.500 C 485.041 231, 494.073 244.183, 501.321 254.795 C 508.570 265.407, 519.388 281.157, 525.362 289.795 C 531.336 298.433, 539.918 310.900, 544.433 317.500 C 548.947 324.100, 555.270 333.325, 558.484 338 C 561.698 342.675, 568.786 353.025, 574.235 361 C 579.685 368.975, 587.272 380, 591.095 385.500 C 604.747 405.136, 609 416.537, 609 433.500 C 609 447.572, 604.388 462.832, 597.121 472.809 L 595.278 475.338 603.198 492.419 L 611.117 509.500 611.308 538.500 L 611.500 567.500 683.250 567.757 L 755 568.013 755 539.171 L 755 510.329 747.397 498.414 C 743.215 491.862, 737.253 482.594, 734.147 477.821 C 731.041 473.047, 724 462.129, 718.500 453.558 C 713 444.987, 704.374 431.568, 699.331 423.737 C 694.289 415.907, 687.570 405.450, 684.400 400.500 C 681.231 395.550, 676.620 388.350, 674.155 384.500 C 671.689 380.650, 667.337 373.900, 664.483 369.500 C 655.793 356.101, 623.560 305.953, 606.956 280 C 598.335 266.525, 587.199 249.200, 582.208 241.500 C 577.217 233.800, 569.876 222.325, 565.894 216 C 561.912 209.675, 555.437 199.550, 551.505 193.500 C 543.595 181.331, 536.973 171.046, 523.500 150.007 C 518.550 142.277, 510.563 129.879, 505.750 122.456 L 497 108.959 497 85.979 L 497 63 382.167 63 C 319.008 63, 267.033 63.300, 266.667 63.667 M 376.500 153.438 C 356.209 158.581, 346.586 166.752, 326.962 195.500 C 313.192 215.674, 303.859 229.289, 292.688 245.500 C 288.519 251.550, 281.724 261.450, 277.589 267.500 C 273.454 273.550, 266.032 284.350, 261.097 291.500 C 256.161 298.650, 248.137 310.350, 243.265 317.500 C 233.428 331.939, 212.684 362.162, 204.144 374.500 C 190.892 393.646, 185.640 401.843, 183.384 406.901 C 176.048 423.356, 176.092 443.149, 183.502 460.449 C 189.020 473.331, 201.345 486.476, 213.434 492.371 C 229.232 500.074, 214.847 499.500, 392 499.500 L 550.500 499.500 558 497.159 C 570.096 493.384, 576.692 489.346, 586 480.018 C 595.816 470.181, 600.748 461.348, 604.001 447.781 C 606.502 437.349, 606.511 429.692, 604.037 419.370 C 601.407 408.400, 598.460 402.524, 587.986 387.364 C 583.098 380.289, 575.279 368.875, 570.612 362 C 565.944 355.125, 558.241 343.875, 553.494 337 C 548.746 330.125, 541.040 318.875, 536.369 312 C 531.698 305.125, 523.823 293.650, 518.868 286.500 C 513.914 279.350, 506.492 268.550, 502.376 262.500 C 498.260 256.450, 491.481 246.550, 487.312 240.500 C 483.143 234.450, 476.338 224.550, 472.190 218.500 C 446.948 181.683, 442.004 174.906, 436.378 169.412 C 424.684 157.990, 408.838 151.928, 391.090 152.085 C 385.816 152.132, 379.250 152.740, 376.500 153.438 M 379.500 159.584 C 363.206 163.193, 350.470 172.556, 339.500 188.991 C 336.750 193.110, 329.982 203.010, 324.460 210.991 C 318.938 218.971, 310.418 231.350, 305.526 238.500 C 300.633 245.650, 292.551 257.455, 287.565 264.733 C 282.579 272.011, 275.350 282.578, 271.500 288.216 C 267.650 293.853, 259.984 304.998, 254.464 312.983 C 248.945 320.967, 240.413 333.350, 235.505 340.500 C 230.597 347.650, 222.874 358.900, 218.344 365.500 C 192.187 403.607, 190.274 406.672, 187.384 415.108 C 183.523 426.378, 183.465 440.655, 187.235 451.697 C 193.598 470.336, 207.881 484.754, 225.458 490.285 L 232.500 492.500 392 492.500 C 545.246 492.500, 551.716 492.427, 557 490.628 C 567.010 487.220, 574.323 482.698, 581.500 475.478 C 599.064 457.807, 603.874 432.101, 593.862 409.407 C 591.630 404.349, 589.010 400.397, 559.573 357.687 C 552.575 347.534, 539.616 328.601, 526.588 309.500 C 522.462 303.450, 517.349 296.025, 515.225 293 C 513.102 289.975, 507.526 281.875, 502.834 275 C 498.143 268.125, 490.429 256.875, 485.694 250 C 480.958 243.125, 474.176 233.225, 470.623 228 C 443.173 187.634, 439.316 182.259, 433.072 175.672 C 420.035 161.920, 398.352 155.408, 379.500 159.584 M 378 163.583 C 364.057 167.261, 352.687 175.858, 343.062 190 C 333.028 204.742, 320.343 223.276, 311.921 235.500 C 306.994 242.650, 299.116 254.125, 294.412 261 C 289.709 267.875, 281.828 279.350, 276.899 286.500 C 271.969 293.650, 264.103 305.125, 259.418 312 C 241.893 337.717, 211.600 381.683, 203.264 393.500 C 192.240 409.127, 188 420.238, 188 433.500 C 188 458.588, 204.119 480.127, 228.530 487.658 C 234.222 489.414, 241.821 489.500, 391.500 489.500 L 548.500 489.500 555.500 487.292 C 562.991 484.929, 572.696 479.555, 577.366 475.183 C 595.040 458.638, 600.394 431.387, 590.173 410 C 588.713 406.947, 568.485 376.687, 550.730 351 C 547.499 346.325, 541.488 337.550, 537.371 331.500 C 533.255 325.450, 525.382 313.975, 519.876 306 C 514.370 298.025, 506.042 285.875, 501.369 279 C 496.697 272.125, 488.834 260.650, 483.897 253.500 C 478.959 246.350, 471.698 235.775, 467.760 230 C 463.821 224.225, 456.527 213.646, 451.550 206.491 C 446.572 199.336, 440.700 190.844, 438.500 187.618 C 430.141 175.364, 417.875 166.598, 404.760 163.506 C 396.910 161.655, 385.179 161.689, 378 163.583 M 333.475 409.250 C 328.855 415.386, 326.595 418.590, 318.593 430.343 C 315.344 435.115, 312.563 438.896, 312.412 438.745 C 312.261 438.594, 312.736 434.427, 313.467 429.485 C 314.198 424.543, 314.955 418.025, 315.148 415 L 315.500 409.500 311.784 409.192 C 308.588 408.926, 308 409.206, 307.589 411.192 C 306.472 416.575, 305.040 430.337, 304.423 441.609 C 303.770 453.526, 303.797 453.744, 306.102 455.359 C 307.391 456.262, 308.973 457, 309.619 457 C 310.265 457, 312.961 453.522, 315.610 449.272 L 320.427 441.543 321.110 444.882 C 322.120 449.823, 324.319 451.500, 329.786 451.500 C 337.547 451.500, 345.552 443.757, 346.709 435.133 C 347.014 432.859, 347.906 430.866, 348.767 430.536 C 350.938 429.703, 351.149 430.275, 349.942 433.736 C 349.355 435.420, 349.016 438.747, 349.188 441.130 C 349.455 444.834, 349.901 445.603, 352.261 446.428 C 354.744 447.297, 355.462 446.963, 359.375 443.122 C 363.362 439.210, 363.773 439.025, 364.270 440.923 C 364.568 442.062, 365.866 443.392, 367.156 443.877 C 369.898 444.909, 372.552 443.751, 379.367 438.550 C 382.420 436.219, 384 435.503, 384 436.450 C 384 438.328, 387.866 441, 390.582 441 C 391.757 441, 394.694 439.433, 397.109 437.518 C 401.333 434.169, 401.557 434.108, 403 435.912 C 406.436 440.208, 408.454 439.576, 416.463 431.696 C 420.608 427.618, 424 424.612, 424 425.018 C 424 425.423, 423.325 426.315, 422.500 427 C 419.961 429.108, 420.606 433.863, 423.618 435.235 C 425.944 436.295, 426.472 436.150, 428.368 433.932 C 436.611 424.285, 438.121 422.727, 437.515 424.500 C 437.138 425.600, 436.591 427.919, 436.300 429.653 C 435.220 436.074, 442.944 435.947, 449.053 429.444 C 451.906 426.406, 452.407 426.402, 453.775 429.406 C 456.308 434.964, 465.101 433.073, 473.242 425.220 C 481.547 417.208, 481.542 408.908, 473.230 406.028 C 469.314 404.671, 468.704 404.705, 465.440 406.463 C 463.492 407.512, 460.458 410.129, 458.699 412.279 C 453.669 418.426, 446.864 425.197, 446.291 424.625 C 446.005 424.338, 447.411 421.169, 449.416 417.583 L 453.063 411.063 451.031 409.031 C 449.914 407.914, 448.502 407, 447.893 407 C 447.285 407, 443.404 410.262, 439.270 414.250 C 431.848 421.409, 431.780 421.447, 433.877 417.290 C 436.548 411.992, 436.546 410.362, 433.863 408.926 C 431.928 407.891, 430.868 408.646, 422.686 416.882 C 417.715 421.886, 413.471 425.804, 413.254 425.587 C 413.038 425.371, 413.792 423.368, 414.930 421.137 C 417.797 415.517, 417.565 414.486, 413.134 413.158 C 406.175 411.073, 400.835 411.674, 395.619 415.129 C 391.479 417.871, 384 426.117, 384 427.938 C 384 428.688, 374.605 436, 373.641 436 C 372.111 436, 373.227 432.033, 375.978 427.696 C 378.407 423.866, 379.491 423, 381.856 423 C 385.359 423, 387.399 420.834, 386.516 418.050 C 385.609 415.193, 381.977 414.565, 377.406 416.475 C 372.357 418.585, 369.637 421.220, 366.100 427.430 C 364.513 430.219, 361.762 433.850, 359.988 435.500 C 356.786 438.479, 356.768 438.482, 357.501 436 C 358.669 432.044, 362.953 423.095, 367.213 415.714 C 371.858 407.668, 371.939 404.500, 367.500 404.500 C 364.805 404.500, 363.985 405.356, 359.432 412.928 C 355.392 419.646, 353.434 421.875, 349.781 423.915 C 345.582 426.259, 344.898 426.365, 341.627 425.182 C 339.097 424.267, 337.051 424.168, 334.610 424.842 L 331.165 425.793 337.267 416.929 C 343.254 408.231, 343.334 408.026, 341.529 406.032 C 340.518 404.915, 339.181 404, 338.558 404 C 337.936 404, 335.648 406.363, 333.475 409.250 M 468.500 413.165 C 463.968 415.667, 458.562 423.895, 460.305 425.638 C 461.530 426.863, 465.170 424.627, 468.362 420.688 C 474.014 413.714, 474.080 410.084, 468.500 413.165 M 399.428 421.917 C 395.758 424.615, 390.207 432.541, 391.254 433.587 C 391.859 434.192, 406 421.072, 406 419.906 C 406 418.202, 403.396 418.999, 399.428 421.917 M 332.143 434.643 C 329.433 437.930, 327.347 443.681, 328.461 444.794 C 329.550 445.884, 334.662 442.722, 336.750 439.668 C 339.500 435.644, 339.531 434.900, 337.038 432.765 C 335.166 431.162, 334.941 431.248, 332.143 434.643 M 348.681 452.734 C 348.429 453.155, 348.197 456.762, 348.166 460.750 C 348.120 466.657, 348.397 468, 349.660 468 C 350.848 468, 351.127 467.125, 350.852 464.250 L 350.495 460.500 355.500 460.500 L 360.505 460.500 360.148 464.250 C 359.870 467.161, 360.146 468, 361.380 468 C 362.716 468, 362.932 466.765, 362.735 460.250 C 362.501 452.525, 360.789 449.502, 360.187 455.750 C 359.885 458.881, 359.711 459, 355.437 459 C 351.193 459, 351 458.872, 351 456.059 C 351 453.197, 349.601 451.192, 348.681 452.734 M 366.639 452.694 C 366.288 453.046, 366 454.798, 366 456.587 C 366 459.390, 366.416 459.933, 369 460.500 C 371.620 461.075, 372 461.592, 372 464.579 C 372 466.953, 372.459 468, 373.500 468 C 374.541 468, 375 466.953, 375 464.579 C 375 461.578, 375.375 461.077, 378.055 460.488 C 380.822 459.880, 381.081 459.494, 380.805 456.388 C 380.412 451.967, 378.594 451.524, 378.187 455.750 C 377.885 458.881, 377.711 459, 373.437 459 C 369.193 459, 369 458.872, 369 456.059 C 369 453.124, 367.850 451.484, 366.639 452.694 M 384.750 452.689 C 382.271 453.337, 382.405 458.611, 384.934 459.965 C 385.998 460.534, 388.923 461, 391.434 461 C 395.749 461, 396 461.151, 395.997 463.750 C 395.994 466.375, 395.771 466.500, 391.092 466.505 C 386.506 466.510, 386.201 466.352, 386.345 464.044 C 386.447 462.420, 385.903 461.455, 384.750 461.216 C 383.354 460.927, 383 461.545, 383 464.277 L 383 467.701 389.009 467.881 C 392.313 467.980, 395.913 467.582, 397.009 466.995 C 399.172 465.838, 399.810 461, 397.800 461 C 396.867 461, 396.867 460.733, 397.800 459.800 C 399.637 457.963, 399.228 454.192, 397.066 453.035 C 395.147 452.008, 388.112 451.811, 384.750 452.689 M 401.199 455.832 C 401.584 460.321, 404 461.401, 404 457.083 C 404 454.096, 404.140 454, 408.500 454 C 412.633 454, 413 454.204, 413 456.500 C 413 458.744, 412.596 459, 409.059 459 C 406.891 459, 404.840 459.450, 404.500 460 C 404.160 460.550, 404.527 461, 405.315 461 C 406.104 461, 408.468 462.575, 410.570 464.500 C 414.182 467.809, 417 468.987, 417 467.188 C 417 466.741, 415.552 465.306, 413.783 463.998 L 410.566 461.619 413.801 460.300 C 416.542 459.181, 416.962 458.574, 416.553 456.321 C 415.880 452.609, 414.413 451.954, 407.199 452.149 L 400.898 452.318 401.199 455.832 M 419.538 453.187 C 418.614 455.897, 419.514 467.340, 420.682 467.728 C 421.523 468.008, 421.855 465.941, 421.834 460.559 C 421.807 453.655, 420.648 449.933, 419.538 453.187 M 426.367 452.765 C 425.705 453.194, 425.208 456.515, 425.172 460.750 L 425.109 468 430.305 467.986 C 439.556 467.962, 439.855 467.723, 439.812 460.378 C 439.782 455.207, 439.419 453.759, 437.953 452.975 C 435.827 451.837, 428.016 451.696, 426.367 452.765 M 427.639 457 C 427.715 458.925, 427.827 461.853, 427.889 463.507 C 427.997 466.434, 428.118 466.505, 432.400 466.164 C 436.391 465.847, 436.840 465.544, 437.227 462.907 C 437.462 461.308, 437.461 458.690, 437.226 457.090 C 436.834 454.416, 436.421 454.152, 432.150 453.840 L 427.500 453.500 427.639 457 M 386.400 456.500 C 386.400 458.819, 386.747 459, 391.200 459 C 395.653 459, 396 458.819, 396 456.500 C 396 454.181, 395.653 454, 391.200 454 C 386.747 454, 386.400 454.181, 386.400 456.500 M 401.187 464.173 C 401.639 468.757, 404 469.102, 404 464.583 C 404 462, 403.564 461, 402.437 461 C 401.281 461, 400.955 461.828, 401.187 464.173 M 586.437 485.129 C 584.822 486.851, 581.025 489.841, 578 491.776 C 574.975 493.710, 572.377 495.387, 572.227 495.502 C 572.077 495.618, 573.315 498.744, 574.977 502.449 L 578 509.186 578 538.593 L 578 568 590.500 568 L 603 568 603 539.092 L 603 510.185 598.379 500.342 C 595.837 494.929, 592.928 488.587, 591.914 486.250 C 590.901 483.913, 589.914 482, 589.723 482 C 589.531 482, 588.052 483.408, 586.437 485.129 M 46.514 531.168 C 39.360 536.795, 40.189 547.461, 48.099 551.551 C 59.206 557.295, 71.141 542.924, 63.176 533.397 C 59.061 528.475, 51.263 527.432, 46.514 531.168 M 702.917 531.782 C 696.639 537.392, 698.236 548.529, 705.769 551.677 C 715.860 555.893, 725.441 546.925, 721.996 536.488 C 719.535 529.030, 708.927 526.413, 702.917 531.782 M 49.580 536.912 C 47.114 539.637, 47.884 544.093, 51.135 545.909 C 53.495 547.227, 54.042 547.202, 56.385 545.667 C 58.367 544.369, 59 543.120, 59 540.512 C 59 535.228, 53.133 532.985, 49.580 536.912 M 706.655 536.829 C 704.184 539.559, 704.559 543.665, 707.451 545.560 C 710.405 547.495, 713.470 546.739, 715.553 543.559 C 719.252 537.914, 711.191 531.817, 706.655 536.829" stroke="none" fill="#050505" fill-rule="evenodd"/></svg>